:SAMPLES-PER-SECOND 30
:FULLY-SPECIFIED
:DEGREES
261
root  2.9755 39.0057 -6.6661 20.3258 -82.8357 -22.8404
RightUpLeg  -5.61421 1.72996 9.06004
RightLeg  18.1398 2.2194 -3.07843
RightFoot  -11.8342 0.0728605 -3.1392
RightToes  1.74624e-010 -3.18055e-015 -2.98177e-016
Spine  -1.58405 -0.282978 7.96035
Spine1  11.9063 -1.62088 6.86018
HEad  1.45301 30.0036 -8.93046
LeftShoulder1  -3.88251e-019 9.70628e-020 -3.87848e-018
LeftArm  -38.0719 57.5093 -81.4287
LeftForeArm  -8.56303 -14.7838 -1.21203
LeftHand  -1.07253 -4.12887 13.8307
RightShoulder  6.82059 9.97708 33.098
RightArm  13.3599 -43.0797 17.2389
RightForeArm  5.90668 18.9367 -8.88066
RightHand  -0.961488 3.64638 -12.2533
LeftUpLeg  -13.3192 -6.745 7.47974
LeftLeg  24.4673 13.3194 14.0138
LeftFoot  -6.45186 0.273592 -5.01603
LeftToes  7.37594e-011 2.64622e-011 -6.25182e-011
262
root  2.96859 39.0628 -6.70358 33.4692 -84.5467 -35.7913
RightUpLeg  -5.34177 2.5145 9.71288
RightLeg  17.0439 3.45465 -2.54417
RightFoot  -11.131 0.100703 -3.75953
RightToes  1.74624e-010 -3.18055e-015 -2.98177e-016
Spine  -1.45224 -0.120574 8.39185
Spine1  11.2142 -1.73606 7.53232
HEad  2.20262 30.2212 -10.1973
LeftShoulder1  -3.88251e-019 9.70628e-020 -3.87848e-018
LeftArm  -40.1132 57.6744 -83.731
LeftForeArm  -8.55545 -15.1079 -1.09241
LeftHand  -1.02078 -3.973 13.3987
RightShoulder  6.92937 10.0601 33.4889
RightArm  14.6299 -41.928 13.4532
RightForeArm  6.48993 18.355 -8.063
RightHand  -0.988062 3.61902 -12.6179
LeftUpLeg  -11.768 -18.2385 7.93423
LeftLeg  21.3854 15.4857 13.1633
LeftFoot  -5.63214 0.317984 -5.09449
LeftToes  7.37594e-011 2.64622e-011 -6.25182e-011
263
root  2.95822 39.0345 -6.79452 52.3684 -85.4178 -54.2397
RightUpLeg  -5.74285 3.27977 10.5991
RightLeg  16.827 4.29805 -2.2643
RightFoot  -10.8984 0.118567 -4.30083
RightToes  1.74624e-010 -3.18055e-015 -2.98177e-016
Spine  -1.82901 -0.171984 6.78333
Spine1  11.0424 -2.79683 11.1638
HEad  2.15702 31.206 -11.6416
LeftShoulder1  -3.88251e-019 9.70628e-020 -3.87848e-018
LeftArm  -41.7829 57.7281 -86.0383
LeftForeArm  -8.06711 -15.577 -1.21018
LeftHand  -0.942274 -3.81023 12.6154
RightShoulder  7.02662 10.1051 33.8995
RightArm  12.4534 -39.2621 11.0573
RightForeArm  11.6006 16.3983 -6.35438
RightHand  -1.06877 3.66055 -13.5763
LeftUpLeg  -11.8258 -23.4071 8.72216
LeftLeg  21.7048 18.0064 14.2873
LeftFoot  -5.18988 0.458968 -6.83702
LeftToes  7.37594e-011 2.64622e-011 -6.25182e-011
264
root  2.95605 38.9905 -6.94323 63.0369 -85.5219 -64.0715
RightUpLeg  -6.72706 3.75162 11.1497
RightLeg  16.994 4.50913 -2.09969
RightFoot  -10.9047 0.124798 -4.61277
RightToes  1.74624e-010 -3.18055e-015 -2.98177e-016
Spine  -2.69267 -0.75444 3.30108
Spine1  10.9611 -4.77523 16.4481
HEad  2.43424 32.4078 -12.0284
LeftShoulder1  -3.88251e-019 9.70628e-020 -3.87848e-018
LeftArm  -42.2765 57.7354 -87.4795
LeftForeArm  -6.41306 -15.8381 -1.51371
LeftHand  -0.892228 -3.78876 11.991
RightShoulder  7.01077 10.05 33.9383
RightArm  7.83912 -36.8563 10.557
RightForeArm  18.1365 13.4513 -5.41675
RightHand  -1.1059 3.69991 -13.9807
LeftUpLeg  -12.7418 -20.1734 9.73421
LeftLeg  22.0024 16.8316 14.0373
LeftFoot  -4.96211 0.613474 -8.80383
LeftToes  7.37594e-011 2.64622e-011 -6.25182e-011
265
root  2.95744 38.9749 -7.11474 59.6594 -85.4112 -60.1108
RightUpLeg  -7.34583 3.77252 11.2477
RightLeg  17.0052 4.20485 -1.96233
RightFoot  -10.9708 0.124938 -4.74172
RightToes  1.74624e-010 -3.18055e-015 -2.98177e-016
Spine  -2.88819 -1.87785 -0.419202
Spine1  10.3297 -6.94255 20.9661
HEad  3.53453 32.9691 -10.7688
LeftShoulder1  -3.88251e-019 9.70628e-020 -3.87848e-018
LeftArm  -41.1604 57.7998 -87.33
LeftForeArm  -4.03027 -15.8258 -1.88666
LeftHand  -0.903605 -3.92833 11.9546
RightShoulder  6.89605 9.93054 33.5999
RightArm  4.68699 -36.4848 10.9475
RightForeArm  20.1982 11.5179 -6.28298
RightHand  -1.06847 3.28709 -14.1392
LeftUpLeg  -13.4306 -12.5607 10.3983
LeftLeg  20.9579 10.9038 11.1887
LeftFoot  -4.77683 0.653366 -9.14609
LeftToes  7.37594e-011 2.64622e-011 -6.25182e-011
266
root  2.9778 38.9915 -7.15504 40.8676 -84.1889 -41.7004
RightUpLeg  -6.65928 2.5987 10.6122
RightLeg  16.6396 3.26801 -1.37698
RightFoot  -11.0724 0.122039 -4.79141
RightToes  1.74624e-010 -3.18055e-015 -2.98177e-016
Spine  -1.43336 -3.71619 -2.32997
Spine1  9.01931 -9.04941 22.8353
HEad  4.86717 32.2505 -8.38446
LeftShoulder1  -3.88251e-019 9.70628e-020 -3.87848e-018
LeftArm  -38.5491 57.566 -85.5458
LeftForeArm  -1.51566 -15.5424 -2.30649
LeftHand  -0.944175 -4.19311 12.1324
RightShoulder  6.78678 9.83536 33.232
RightArm  3.72659 -38.2805 10.654
RightForeArm  16.1156 12.1729 -7.39152
RightHand  -0.974121 2.0702 -14.9446
LeftUpLeg  -13.7455 -6.92496 10.1759
LeftLeg  20.2473 4.16702 8.2117
LeftFoot  -4.46211 0.580872 -7.84862
LeftToes  7.37594e-011 2.64622e-011 -6.25182e-011
267
root  3.0681 39.0139 -7.00994 20.4712 -80.9065 -22.6146
RightUpLeg  -4.78962 0.158458 9.13451
RightLeg  16.0917 1.62528 -0.178494
RightFoot  -11.1922 0.117465 -4.79216
RightToes  1.74624e-010 -3.18055e-015 -2.98177e-016
Spine  1.56463 -6.14792 -2.2737
Spine1  7.22354 -11.1908 22.5064
HEad  5.48326 30.1388 -5.93305
LeftShoulder1  -3.88251e-019 9.70628e-020 -3.87848e-018
LeftArm  -35.381 56.431 -83.0393
LeftForeArm  1.22513 -14.9297 -2.76152
LeftHand  -0.978026 -4.53629 12.1193
RightShoulder  6.76386 9.81498 33.1549
RightArm  5.1999 -40.8921 9.05763
RightForeArm  6.96748 14.6416 -7.88013
RightHand  -0.851152 0.693643 -15.8852
LeftUpLeg  -13.9668 -6.47061 9.16596
LeftLeg  20.5399 1.61563 7.29467
LeftFoot  -3.99452 0.498835 -6.39558
LeftToes  7.37594e-011 2.64622e-011 -6.25182e-011
268
root  3.20372 39.0211 -6.87475 12.9756 -77.6886 -16.209
RightUpLeg  -3.23213 -1.77444 7.87933
RightLeg  15.6253 0.118055 0.885522
RightFoot  -11.1729 0.118789 -4.82455
RightToes  1.74624e-010 -3.18055e-015 -2.98177e-016
Spine  4.03623 -7.9623 -1.67679
Spine1  5.83099 -12.7027 21.8277
HEad  5.14941 27.0753 -4.13918
LeftShoulder1  -3.88251e-019 9.70628e-020 -3.87848e-018
LeftArm  -33.1947 54.5117 -81.2081
LeftForeArm  3.93202 -14.1813 -3.05509
LeftHand  -1.009 -4.71811 12.2673
RightShoulder  6.811 9.8436 33.3424
RightArm  8.6374 -42.9908 6.71987
RightForeArm  -2.83645 17.0092 -8.18488
RightHand  -0.7234 -0.092722 -15.4308
LeftUpLeg  -14.1927 -7.45365 8.25143
LeftLeg  20.8401 2.09573 7.58515
LeftFoot  -3.49813 0.456617 -5.54746
LeftToes  7.37594e-011 2.64622e-011 -6.25182e-011
269
root  3.2862 39.0423 -6.86968 11.0773 -76.5884 -14.5424
RightUpLeg  -2.84483 -2.40889 7.37897
RightLeg  15.3772 -0.41123 1.36386
RightFoot  -11.0415 0.126744 -4.97459
RightToes  1.74624e-010 -3.18055e-015 -2.98177e-016
Spine  4.82042 -8.4595 -1.73725
Spine1  5.3 -13.1757 21.8451
HEad  4.43078 23.8768 -3.17071
LeftShoulder1  -3.88251e-019 9.70628e-020 -3.87848e-018
LeftArm  -32.9982 52.7895 -80.7714
LeftForeArm  5.3778 -13.9534 -2.89635
LeftHand  -1.04056 -4.57534 12.824
RightShoulder  6.87265 9.88237 33.5836
RightArm  12.0091 -44.1452 4.4315
RightForeArm  -6.98274 18.0679 -8.36837
RightHand  -0.633511 -0.127985 -13.6544
LeftUpLeg  -14.2374 -6.96219 7.83231
LeftLeg  20.4003 2.0979 7.44817
LeftFoot  -2.95695 0.438367 -5.02822
LeftToes  7.37594e-011 2.64622e-011 -6.25182e-011
270
root  3.27601 39.0795 -6.98742 11.9589 -77.4847 -14.9638
RightUpLeg  -3.37296 -1.85987 7.66827
RightLeg  15.2226 -0.0799026 1.2032
RightFoot  -10.8482 0.138718 -5.18089
RightToes  1.74624e-010 -3.18055e-015 -2.98177e-016
Spine  4.127 -7.88574 -2.59715
Spine1  5.59425 -12.8562 22.6094
HEad  3.9044 21.2955 -2.83514
LeftShoulder1  -3.88251e-019 9.70628e-020 -3.87848e-018
LeftArm  -34.2928 52.0262 -81.4612
LeftForeArm  4.35864 -14.9681 -2.26818
LeftHand  -1.04384 -4.35988 13.1473
RightShoulder  6.92657 9.92059 33.7836
RightArm  13.6127 -44.5206 2.75229
RightForeArm  -3.13879 17.6983 -8.03222
RightHand  -0.673853 0.749194 -12.4876
LeftUpLeg  -14.0734 -5.65569 7.93426
LeftLeg  19.5576 1.54381 6.96165
LeftFoot  -2.58349 0.442354 -4.8805
LeftToes  7.37594e-011 2.64622e-011 -6.25182e-011
